<svg width="33" height="32" viewBox="0 0 33 32" fill="none" xmlns="http://www.w3.org/2000/svg">
<path d="M23.9689 21.977C23.9689 22.4934 23.5492 22.9124 23.0313 22.9124C22.5137 22.9124 22.0938 22.4934 22.0938 21.977C22.0938 21.4603 22.5137 21.0415 23.0313 21.0415C23.5492 21.0415 23.9689 21.4603 23.9689 21.977Z" fill="#808080"/>
<path d="M26.9817 19.9726C26.9817 20.4893 26.562 20.908 26.0441 20.908C25.5265 20.908 25.1065 20.4893 25.1065 19.9726C25.1065 19.4559 25.5265 19.0371 26.0441 19.0371C26.562 19.0371 26.9817 19.4559 26.9817 19.9726Z" fill="#808080"/>
<path d="M26.9817 23.9804C26.9817 24.4968 26.562 24.9158 26.0441 24.9158C25.5265 24.9158 25.1065 24.4968 25.1065 23.9804C25.1065 23.4637 25.5265 23.0449 26.0441 23.0449C26.562 23.0449 26.9817 23.4637 26.9817 23.9804Z" fill="#808080"/>
<path d="M20.9561 10.5679V8.25921C20.9561 6.60049 20.3298 5.47454 20.1086 5.03556C17.5107 -0.149371 12.2404 0.000447167 11.2272 0.000447167C5.02685 0.000447167 0 5.00535 0 11.2025C0 13.1521 0.461959 15.1038 1.33582 16.8468L3.1861 20.5392C3.66686 21.4985 3.74743 22.6323 3.40731 23.65L1.05235 30.6988C0.957124 30.9841 1.00498 31.2976 1.18127 31.5414C1.35755 31.7855 1.64054 31.93 1.94184 31.93H10.9803C11.3839 31.93 11.7421 31.6725 11.8698 31.2905L12.6604 28.9241H15.5276C17.4162 28.9241 19.1144 27.8771 19.959 26.1918L20.8572 24.3994C21.0025 24.1092 20.9871 23.765 20.8162 23.489C20.6453 23.2133 20.3435 23.0454 20.0185 23.0454H17.0058C16.4225 23.0454 15.9349 22.575 15.9349 21.977C15.9349 20.8354 16.8659 19.9065 18.01 19.9065H21.0228C21.5407 19.9065 21.9604 19.4878 21.9604 18.9711V17.9026H22.6457C23.9291 17.9026 24.9731 16.861 24.9731 15.5796C24.9731 14.9416 24.7138 14.317 24.2616 13.8658L20.9561 10.5679ZM22.6457 16.0317H21.023C20.5052 16.0317 20.0854 16.4505 20.0854 16.9672V18.0356H18.01C15.8319 18.0356 14.0597 19.8037 14.0597 21.977C14.0597 23.593 15.3694 24.9163 17.0058 24.9163H18.5015L18.2818 25.3551C17.7568 26.4026 16.7013 27.0532 15.5276 27.0532H11.9846C11.581 27.0532 11.2228 27.311 11.0951 27.6929L10.3045 30.0591H3.24275L5.18629 24.2418C5.68976 22.7351 5.57525 21.1229 4.86326 19.7024L3.01274 16.01C2.26853 14.5255 1.87518 12.8629 1.87518 11.202C1.87518 6.04848 6.0543 1.87135 11.2272 1.87135C11.8205 1.87135 16.2674 1.55344 18.4322 5.87381C18.6834 6.37296 19.0809 7.11206 19.0809 8.25921V10.696C19.0809 11.1131 19.2438 11.5053 19.5395 11.8003L22.9358 15.1888C23.2579 15.5102 23.0691 16.0317 22.6457 16.0317V16.0317Z" fill="#808080"/>
<path d="M29.9555 18.7614L31.5624 17.7597C32.0014 17.4856 32.1349 16.9085 31.8605 16.4705C31.5861 16.0325 31.0076 15.8992 30.5686 16.1731L28.9618 17.175C28.5225 17.4488 28.389 18.0259 28.6634 18.464C28.8695 18.7931 29.4196 19.0956 29.9555 18.7614V18.7614Z" fill="#808080"/>
<path d="M31.5624 26.1931L29.9556 25.1911C29.5163 24.9173 28.9379 25.0506 28.6634 25.4886C28.389 25.9268 28.5226 26.5039 28.9616 26.7777L30.5684 27.7797C31.1205 28.1239 31.6642 27.7953 31.8605 27.4822C32.135 27.0442 32.0014 26.4671 31.5624 26.1931V26.1931Z" fill="#808080"/>
<path d="M29.4587 22.9124H31.0656C31.5834 22.9124 32.0031 22.4937 32.0031 21.977C32.0031 21.4605 31.5834 21.0415 31.0656 21.0415H29.4587C28.9408 21.0415 28.5211 21.4605 28.5211 21.977C28.5211 22.4937 28.9408 22.9124 29.4587 22.9124Z" fill="#808080"/>
</svg>
