<svg width="32" height="32" viewBox="0 0 32 32" fill="none" xmlns="http://www.w3.org/2000/svg">
<path d="M11.4296 16.9143L13.7487 15.6951L11.4296 14.4757L12.8277 12.2614L10.209 12.3637L10.3115 9.74771L8.09492 11.1444L6.87436 8.82764L5.6538 11.1444L3.43718 9.74771L3.53968 12.3637L0.920998 12.2614L2.31912 14.4757L0 15.6951L2.31912 16.9144L0.920998 19.1288L3.53968 19.0264L3.43718 21.6424L5.6538 20.2457L6.87436 22.5625L8.09492 20.2457L10.3115 21.6424L10.209 19.0263L12.8277 19.1287L11.4296 16.9143ZM6.87436 19.1288C4.97605 19.1288 3.43718 17.5914 3.43718 15.6951C3.43718 13.7987 4.97605 12.2614 6.87436 12.2614C8.77267 12.2614 10.3115 13.7987 10.3115 15.6951C10.3115 17.5914 8.77267 19.1288 6.87436 19.1288Z" fill="#808080"/>
<path d="M28.7912 29.288C28.1581 29.7328 27.7007 30.0541 26.6639 30.0541C25.6272 30.0541 25.1697 29.7328 24.5365 29.288C23.8344 28.7949 22.9606 28.1812 21.3309 28.1812C19.7011 28.1812 18.8273 28.795 18.1253 29.288C17.4921 29.7328 17.0347 30.0541 15.9981 30.0541C14.9615 30.0541 14.504 29.7328 13.8709 29.288C13.1688 28.795 12.2951 28.1812 10.6654 28.1812C9.0356 28.1812 8.16192 28.795 7.45986 29.288C6.82673 29.7328 6.3693 30.0541 5.33267 30.0541C4.29605 30.0541 3.83868 29.7328 3.20555 29.288C2.50349 28.7949 1.62981 28.1812 0 28.1812V30.0541C1.03656 30.0541 1.49406 30.3754 2.12718 30.8202C2.82924 31.3132 3.70299 31.927 5.33267 31.927C6.96248 31.927 7.83617 31.3132 8.53823 30.8202C9.17135 30.3754 9.62879 30.0541 10.6654 30.0541C11.702 30.0541 12.1594 30.3754 12.7925 30.8202C13.4946 31.3132 14.3683 31.927 15.998 31.927C17.6277 31.927 18.5015 31.3133 19.2036 30.8202C19.8367 30.3754 20.2941 30.0541 21.3308 30.0541C22.3675 30.0541 22.825 30.3754 23.4582 30.8202C24.1602 31.3133 25.0341 31.927 26.6639 31.927C28.2937 31.927 29.1674 31.3133 29.8695 30.8202C30.5027 30.3755 30.9602 30.0541 31.9969 30.0541V28.1812C30.3671 28.1812 29.4934 28.7948 28.7912 29.288Z" fill="#808080"/>
<path d="M31.0284 6.82011C29.9975 4.61153 28.2584 2.87578 26.0761 1.85381L26.5181 0.640728L24.7562 0L24.3141 1.21371C19.22 -0.133178 13.8298 2.60949 11.9933 7.65033L11.6148 8.6891L12.7027 8.89127C14.4608 9.218 16.1415 9.82913 17.6983 10.7077L17.9172 10.8312L18.1685 10.8288C18.2001 10.8285 18.2318 10.8284 18.2633 10.8284C19.0908 10.8284 19.9085 10.9341 20.6983 11.1379L16.33 23.1276C16.2195 23.1263 16.1091 23.1243 15.9985 23.1243C13.1019 23.1243 10.2572 23.5981 7.54341 24.5326C5.83373 25.1213 4.19729 25.8862 2.65179 26.815C3.36586 27.1117 3.89198 27.4808 4.28367 27.7559C4.83185 28.141 4.88916 28.1812 5.3326 28.1812C5.7761 28.1812 5.83335 28.1409 6.38135 27.756C7.15247 27.2144 8.44259 26.3083 10.6653 26.3083C12.8881 26.3083 14.1782 27.2145 14.949 27.7559C15.4972 28.141 15.5545 28.1812 15.998 28.1812C16.4415 28.1812 16.4987 28.1409 17.0466 27.756C17.8178 27.2144 19.1079 26.3083 21.3308 26.3083C23.5538 26.3083 24.8439 27.2146 25.6148 27.756C26.1629 28.1409 26.2202 28.1812 26.6638 28.1812C27.1074 28.1812 27.1647 28.1409 27.7126 27.756C28.1044 27.4808 28.6307 27.1117 29.3449 26.8148C27.7994 25.8861 26.1631 25.1212 24.4533 24.5325C22.459 23.8457 20.3939 23.4088 18.2896 23.2249L22.4601 11.7783C23.2244 12.1428 23.9436 12.6078 24.5969 13.1663L24.7879 13.3296L25.035 13.3755C26.7931 13.7022 28.4738 14.3133 30.0307 15.192L30.9942 15.7357L31.3727 14.6968C32.3147 12.1112 32.1925 9.31384 31.0284 6.82011Z" fill="#808080"/>
</svg>
