<svg width="32" height="32" viewBox="0 0 32 32" fill="none" xmlns="http://www.w3.org/2000/svg">
<path d="M31.8992 14.2237C31.8487 13.7739 31.3241 13.4356 30.8704 13.4356C29.4043 13.4356 28.1032 12.5751 27.5576 11.2432C27.0005 9.8794 27.3599 8.28917 28.4522 7.2871C28.7963 6.97254 28.8382 6.44584 28.5498 6.08022C27.7992 5.12727 26.9464 4.26636 26.0151 3.5203C25.6507 3.22803 25.1153 3.26871 24.7991 3.6187C23.8454 4.67488 22.1323 5.06735 20.8085 4.51504C19.4314 3.93561 18.5622 2.53968 18.6475 1.04135C18.6756 0.570413 18.3313 0.161198 17.8621 0.106535C16.6668 -0.0318536 15.461 -0.0358669 14.2623 0.0971245C13.799 0.148328 13.4549 0.547856 13.4703 1.01284C13.5222 2.49651 12.6431 3.8678 11.2793 4.42647C9.97141 4.96079 8.2702 4.57123 7.3185 3.52432C7.00395 3.17945 6.47793 3.13711 6.11106 3.42316C5.15231 4.17557 4.28032 5.03704 3.52278 5.98224C3.2276 6.34966 3.27119 6.88218 3.61813 7.19784C4.73202 8.20656 5.09114 9.81048 4.51282 11.1902C3.96064 12.5056 2.59489 13.3529 1.03151 13.3529C0.52418 13.3366 0.163124 13.6775 0.107077 14.1389C-0.0335257 15.3405 -0.0350479 16.5655 0.100296 17.777C0.150808 18.2287 0.690938 18.5641 1.14956 18.5641C2.54313 18.5287 3.88024 19.3908 4.44196 20.7563C5.00091 22.1201 4.6411 23.7097 3.547 24.7131C3.20477 25.0277 3.16104 25.5531 3.44999 25.9184C4.193 26.8653 5.04658 27.7268 5.9807 28.4792C6.34743 28.7746 6.88078 28.7332 7.19866 28.3828C8.15603 27.3241 9.86887 26.9323 11.1873 27.4857C12.5684 28.0637 13.4372 29.4594 13.3524 30.9582C13.3246 31.4291 13.6697 31.8396 14.1373 31.893C14.749 31.9645 15.3639 32 15.9807 32C16.566 32 17.1516 31.968 17.7371 31.9028C18.201 31.8516 18.5444 31.4517 18.5288 30.9866C18.4752 29.5036 19.3562 28.1322 20.7184 27.5746C22.035 27.0368 23.7286 27.4304 24.6809 28.4758C24.9971 28.8199 25.5199 28.8617 25.8883 28.5768C26.8454 27.8263 27.7157 26.9653 28.4766 26.0176C28.772 25.6508 28.7301 25.1176 28.3812 24.8014C27.2676 23.7934 26.9066 22.1888 27.4849 20.8104C28.0285 19.5128 29.3435 18.6415 30.7578 18.6415L30.9557 18.6467C31.4149 18.684 31.8368 18.3304 31.8923 17.8619C32.0336 16.6592 32.0351 15.4356 31.8992 14.2237ZM15.9999 25.2242C10.9054 25.2242 6.77574 21.0945 6.77574 16.0002C6.77574 10.9058 10.9055 6.77617 15.9999 6.77617C21.0943 6.77617 25.224 10.9058 25.224 16.0002C25.224 17.7293 24.7473 19.3467 23.9193 20.7298L19.8803 16.6906C20.1727 16.0012 20.3272 15.2537 20.327 14.4823C20.327 12.9718 19.7387 11.5518 18.6705 10.4839C17.6026 9.41593 16.1826 8.82778 14.6723 8.82778C14.1683 8.82778 13.6667 8.89476 13.1813 9.02692C12.9688 9.08491 12.795 9.26011 12.7384 9.47309C12.6805 9.69091 12.7457 9.91413 12.9159 10.0845C12.9159 10.0845 14.9099 12.0939 15.5771 12.7609C15.647 12.8308 15.6469 12.9976 15.637 13.0576L15.6308 13.1015C15.5636 13.835 15.4339 14.7154 15.3269 15.0537C15.3125 15.068 15.299 15.08 15.2843 15.0947C15.2689 15.1101 15.2548 15.1249 15.24 15.1401C14.8972 15.2501 14.0032 15.3813 13.2581 15.448L13.2583 15.444L13.2248 15.4524C13.2188 15.4531 13.2078 15.454 13.1931 15.454C13.1126 15.454 12.9941 15.4314 12.8864 15.3239C12.192 14.6294 10.2761 12.7273 10.2761 12.7273C10.1043 12.556 9.92796 12.52 9.81047 12.52C9.5366 12.52 9.29137 12.7179 9.21415 13.0017C8.68675 14.9534 9.24584 17.0528 10.6736 18.4807C11.7418 19.5487 13.162 20.1369 14.6725 20.1369C15.4438 20.1369 16.1913 19.9826 16.8806 19.6902L20.9635 23.7731C19.53 24.6903 17.8279 25.2242 15.9999 25.2242Z" fill="#808080"/>
</svg>
